<svg width="28" height="23" viewBox="0 0 28 23" fill="none" xmlns="http://www.w3.org/2000/svg">
<g filter="url(#filter0_dd_4062_476)">
<path d="M4 13.3333C4 14.0667 4.6 14.6667 5.33333 14.6667H22.6667C23.4 14.6667 24 14.0667 24 13.3333V6.66667H4V13.3333ZM7.33333 10.6667H11.3333C11.7333 10.6667 12 10.9333 12 11.3333C12 11.7333 11.7333 12 11.3333 12H7.33333C6.93333 12 6.66667 11.7333 6.66667 11.3333C6.66667 10.9333 6.93333 10.6667 7.33333 10.6667ZM22.6667 0H5.33333C4.6 0 4 0.6 4 1.33333V4H24V1.33333C24 0.6 23.4 0 22.6667 0Z" fill="black"/>
</g>
<defs>
<filter id="filter0_dd_4062_476" x="0" y="0" width="28" height="22.6665" filterUnits="userSpaceOnUse" color-interpolation-filters="sRGB">
<feFlood flood-opacity="0" result="BackgroundImageFix"/>
<feColorMatrix in="SourceAlpha" type="matrix" values="0 0 0 0 0 0 0 0 0 0 0 0 0 0 0 0 0 0 127 0" result="hardAlpha"/>
<feOffset dy="4"/>
<feGaussianBlur stdDeviation="2"/>
<feComposite in2="hardAlpha" operator="out"/>
<feColorMatrix type="matrix" values="0 0 0 0 0 0 0 0 0 0 0 0 0 0 0 0 0 0 0.25 0"/>
<feBlend mode="normal" in2="BackgroundImageFix" result="effect1_dropShadow_4062_476"/>
<feColorMatrix in="SourceAlpha" type="matrix" values="0 0 0 0 0 0 0 0 0 0 0 0 0 0 0 0 0 0 127 0" result="hardAlpha"/>
<feOffset dy="4"/>
<feGaussianBlur stdDeviation="2"/>
<feComposite in2="hardAlpha" operator="out"/>
<feColorMatrix type="matrix" values="0 0 0 0 0 0 0 0 0 0 0 0 0 0 0 0 0 0 0.25 0"/>
<feBlend mode="normal" in2="effect1_dropShadow_4062_476" result="effect2_dropShadow_4062_476"/>
<feBlend mode="normal" in="SourceGraphic" in2="effect2_dropShadow_4062_476" result="shape"/>
</filter>
</defs>
</svg>
