<svg width="20" height="20" viewBox="0 0 20 20" fill="none" xmlns="http://www.w3.org/2000/svg">
<path fill-rule="evenodd" clip-rule="evenodd" d="M10 3.33337C7.66667 3.33337 5.41667 4.16671 3.58333 5.66671L0.916667 8.00004C0.333333 8.50004 0 9.25004 0 10C0 10.75 0.333333 11.5 0.916667 12L3.58333 14.25C5.41667 15.8334 7.66667 16.6667 10 16.6667C12.3333 16.6667 14.5833 15.8334 16.4167 14.3334L19.0833 12.0834C19.6667 11.5834 20 10.8334 20 10.0834C20 9.33337 19.6667 8.58337 19.0833 8.08337L16.4167 5.83337C14.5833 4.16671 12.3333 3.33337 10 3.33337ZM15 10C15 12.75 12.75 15 10 15C7.25 15 5 12.75 5 10C5 7.25004 7.25 5.00004 10 5.00004C12.75 5.00004 15 7.25004 15 10ZM6.66667 10C6.66667 8.16671 8.16667 6.66671 10 6.66671C11.8333 6.66671 13.3333 8.16671 13.3333 10C13.3333 11.8334 11.8333 13.3334 10 13.3334C8.16667 13.3334 6.66667 11.8334 6.66667 10Z" fill="black"/>
</svg>
