<svg width="31" height="25" viewBox="0 0 31 25" fill="none" xmlns="http://www.w3.org/2000/svg">
<g filter="url(#filter0_dd_4062_475)">
<path d="M25 0H5.5C4.675 0 4 0.675 4 1.5V2.55L15.25 8.85L26.5 2.55V1.5C26.5 0.675 25.825 0 25 0ZM15.25 10.5C15.1 10.5 15.025 10.5 14.875 10.425L4 4.275V15C4 15.825 4.675 16.5 5.5 16.5H25C25.825 16.5 26.5 15.825 26.5 15V4.275L15.625 10.425C15.475 10.5 15.4 10.5 15.25 10.5Z" fill="black"/>
</g>
<defs>
<filter id="filter0_dd_4062_475" x="0" y="0" width="30.5" height="24.5" filterUnits="userSpaceOnUse" color-interpolation-filters="sRGB">
<feFlood flood-opacity="0" result="BackgroundImageFix"/>
<feColorMatrix in="SourceAlpha" type="matrix" values="0 0 0 0 0 0 0 0 0 0 0 0 0 0 0 0 0 0 127 0" result="hardAlpha"/>
<feOffset dy="4"/>
<feGaussianBlur stdDeviation="2"/>
<feComposite in2="hardAlpha" operator="out"/>
<feColorMatrix type="matrix" values="0 0 0 0 0 0 0 0 0 0 0 0 0 0 0 0 0 0 0.25 0"/>
<feBlend mode="normal" in2="BackgroundImageFix" result="effect1_dropShadow_4062_475"/>
<feColorMatrix in="SourceAlpha" type="matrix" values="0 0 0 0 0 0 0 0 0 0 0 0 0 0 0 0 0 0 127 0" result="hardAlpha"/>
<feOffset dy="4"/>
<feGaussianBlur stdDeviation="2"/>
<feComposite in2="hardAlpha" operator="out"/>
<feColorMatrix type="matrix" values="0 0 0 0 0 0 0 0 0 0 0 0 0 0 0 0 0 0 0.25 0"/>
<feBlend mode="normal" in2="effect1_dropShadow_4062_475" result="effect2_dropShadow_4062_475"/>
<feBlend mode="normal" in="SourceGraphic" in2="effect2_dropShadow_4062_475" result="shape"/>
</filter>
</defs>
</svg>
